<svg xmlns="http://www.w3.org/2000/svg" width="47.618" height="18.147" viewBox="11.691 8.663 47.618 18.147" enable-background="new 11.691 8.663 47.618 18.147"><path d="M34.787 19.678c-.008-.113-.028-.148-.06-.188-.03-.038-.133-.113-.133-.113l-.007.063s-.045-.008-.18-.088c-.136-.082-.234-.178-.234-.178l-.007.06s-.097-.136-.173-.253c-.076-.118-.224-.372-.224-.372s.045.283.033.428c-.012.146 0 .224 0 .224l-.05-.07s.013.07.01.147c-.004.076-.022.183-.022.183l-.03-.05s-.012.097-.04.234c-.026.14-.094.253-.14.366-.045.115 0 .117-.013.248-.005.063-.002.1 0 .12l.01.025s-.005-.004-.01-.026l-.022-.067s.02.23 0 .362-.02.27-.033.32c-.01.05-.03-.057-.03-.057s-.01.037-.03.163c-.022.127-.006.27.022.356.026.09.022.122-.074.164-.03.014-.052.038-.072.067.024-.004.048-.005.07-.01.31-.06.715-.154.895-.073.138.063.215.007.408.03.046-.1.098-.187.117-.237.02-.057.053-.31.052-.428-.003-.118-.035-.207-.03-.342.003-.132.004-.893-.003-1.007zM18.99 17.544c.972-.367 1.523-1.156 1.523-2.73V12.08c0-2.286-1.128-3.415-3.413-3.415h-5.41v17.976c.08.03.17.055.192.075.05-.014.22-.034.284-.07.336-.187.562 0 .898 0s1.01-.337 1.272-.41c.262-.075 2.632.073 3.08.073s1.012.075 1.012.075l-.3-.748.6.64-.188-.527.3.413-.076-.413.45.563s.103.006.234.017h.125c.66-.563.992-1.457.992-2.688v-3.73c0-1.344-.473-2.052-1.575-2.368zm-3.65-5.726h.867c.446 0 .656.21.656.657v3.047c0 .447-.21.657-.656.657h-.866v-4.362zm1.575 11.426c0 .447-.21.656-.656.656h-.92v-4.647h.92c.445 0 .655.21.655.655v3.336zm29.026-3.89h3.022v-3.28h-3.02V11.95h3.148V8.666h-6.825V25.39l1.32.3c.178-.023.4-.063.637-.11.373-.075.76.315.985.355.233.04.168.258.6.18.41-.076.38.088.38.088l1.16-.148s.41-.03.485-.145c.076-.112.187.236.6.236s.372.057.372.057l.187-.332.154.12v-2.22H45.94v-4.415zM56.13 8.667l.08 9.14-2.128-9.14h-3.755V26.4l.284.062h.038c.263 0 .215-.078.215-.078l.188-.748.076.673s.148-.262.148-.523c0-.263.424-.82.102-.147-.087.182.016.483.016.483l.334.15.078-.21c.155-.055.127-.09.373-.09.11 0 .15.148.15.148s.115.15.115.04.826-.26.977-.184c.013.006.038.013.074.018l-.07-8.924 2.156 9.32c.112.054.216.105.28.126.113.04.113.133.375.133.263 0 0-.11.188-.296.187-.188.26.082.224.307-.037.227.412.13.412.13 0-.163.075 0 .075 0h.11l.126-.39s.02-.138.06-.25c0 0-.03-.065.153-.18.188-.11.377.34.377.34l.136.09.176.134-.035-.516.19.328v.172l.48-.38.06-.045-.06.046c-.127.103-.385.322-.355.437.03.115.38.02.756.023V8.666h-3.18zM36.033 21.51c.004-.044-.02.064-.024.096-.004.03-.055-.23-.046-.36.01-.134.02-.216.02-.216l-.07.12s.018-.028.024-.19c.007-.165-.06-.186-.06-.186l-.036.125c-.008.024-.01-.288.048-.462.056-.174-.214-.52-.214-.52s.027.193.07.346c.043.15-.11-.174-.11-.174s.02.15.063.303c.042.152.033.146.042.198.01.055-.115-.113-.115-.113s.04.08.067.205c.026.13.01.284.01.284l-.097-.16s.054.138.082.296 0 .166-.05.287c-.05.117-.05.145-.023.31.002.02.005.04.005.06.058-.024.077-.064.345.064.153.07.203.103.245.118-.048-.063-.09-.146-.123-.197-.053-.084-.06-.196-.057-.236zm-14.27 4.816c.18-.096.345-.184.49-.165.3.038-.127-.165.36-.165.486 0 .454-.13.454-.13l.163-.115.08-.047.084-.067c.093.112-.067-.28.275.063.11.11 1.226.312 1.226.312l.076-.112.243-.088.022-.098s.025.012.203.032V8.666h-3.676v17.66zm11.012-7.137c-.02-.105-.11-.728-.16-1.194-.053-.467-.058-.44-.108-.686-.005-.022-.008-.04-.01-.064s-.01-.044-.01-.044.04-.028.026-.08c-.013-.05-.006-.077-.006-.077l-.027.05-.002-.04c-.003-.04-.033-.097-.04-.117-.005-.02-.006.08-.006.08s-.048-.063-.067-.14c-.018-.076.005-.134.003-.154-.002-.02-.03.073-.047.075-.016 0 .012-.015.008-.116-.003-.095-.032-.142-.035-.158v.133s-.068-.193.03-.413c.09-.2.033-.267.033-.267l-.057.066s-.013-.105-.02-.193c-.01-.088.016-.126.022-.157.007-.032-.056.062-.056.062s.023-.173.047-.225c.025-.052.085-.106.085-.106s-.025-.004-.072-.017c-.046-.012-.085-.047-.085-.047l.09-.013s-.094-.01-.183-.05c-.09-.037-.123-.098-.123-.098s.044.013.106.004c.062-.008.11-.124.11-.124s-.077-.013-.097-.02c-.02-.004.02-.004.067-.077.047-.072.03-.16.028-.18-.003-.02-.042.052-.042.052s-.04-.126-.03-.177c.01-.05-.003-.166-.003-.166l-.043.08s-.024-.116-.018-.185c.007-.07.022-.126.022-.126l-.074.06.014-.03c.012-.03.002-.102.002-.102s-.025.038-.046.038.02-.057.004-.152c-.016-.097-.074-.18-.074-.18l-.02.052s-.042-.083-.052-.152c-.01-.068 0-.19 0-.19l-.033.014s.02-.034.023-.092c.002-.06.012-.083.016-.094.005-.012-.013.013-.038.03-.026.018-.057.03-.057.03l.015-.04-.057.05s.004-.008.012-.037c.006-.03.045-.065.047-.07.002-.006-.013.013-.04.02-.027.006-.05 0-.05 0s.02-.004.03-.053c.01-.05-.02-.07-.023-.08 0-.012-.01.055-.01.055s-.03-.075-.034-.124c-.003-.05-.015-.083-.015-.083s-.005.043-.024.07c-.017.03-.054.028-.054.028s.01-.012.013-.052c0-.04-.035-.073-.057-.128-.02-.053-.026-.09-.023-.114.003-.022.042-.13.042-.13s-.03.023-.045.057c-.015.03-.023.05-.023.05s-.003-.055-.003-.087c.002-.03.022-.063.022-.063l-.034.027s.004-.023.023-.062c.02-.038.055-.06.055-.06l-.06-.023.05-.017s-.015.004-.05 0c-.033-.004-.097-.047-.097-.047s.018 0 .047-.008c.03-.008.036-.06.036-.06s-.01.01-.028.016c-.017.008-.09-.022-.09-.022s.03-.005.05-.037c.02-.03.01-.038.01-.05-.002-.01-.03.043-.03.043s.012-.056-.006-.097c-.018-.04-.01-.06-.01-.06l-.028.04c-.003.006.003-.08.017-.118l.026-.09s-.012.03-.043.05c-.03.02-.047.01-.047.01s.01-.004.02-.022c.012-.02.01-.05.01-.05s-.03.018-.04.022c-.012.004 0-.002.01-.027.006-.017.026-.034.037-.044-.005.004-.016.008-.033.01-.037.005-.078-.003-.078-.003s.013-.01.033-.042c.02-.03.013-.08.013-.08l-.028.03.012-.135-.063.004s.01-.007.032-.04c.023-.033.03-.097.03-.097l-.053.06s.05-.138.086-.22-.003-.212-.003-.212l-.015.066s.018-.1.01-.245c-.01-.144-.106-.227-.114-.247-.006-.018-.007.05-.007.05s-.026-.14-.13-.26c-.1-.117-.32-.496-.328-.516-.01-.02-.003.04-.003.04s-.086-.16-.062-.256c.023-.094.06-.245.057-.26-.003-.015 0-.097.12-.05.12.043.216.107.237.117.022.01 0-.02-.007-.05-.007-.03-.137-.41-.092-.562.043-.15.084-.242.084-.242s.007-.048.008-.133c0-.045.036-.11.097-.157h-4.735v3.284h2.232v13.855h.005c.177-.04.445-.148.564-.208.15-.075.43-.306.656-.343.225-.037.453-2.013.54-2.163.085-.148.354-.37.354-.37l.104-.005c.038-.03.048-.05.065-.115.027-.113.193-.113-.085-.345-.277-.23-.518.01-.518.01s.148-.176.297-.194c.148-.017.323.065.323.065s-.02-.026-.157-.176c-.14-.15-.232-.177-.232-.177s.26.037.397.14c.14.103.223.177.223.177s-.047-.093-.083-.298c-.037-.205-.037-.427-.037-.427s.157.39.157.315-.018-.224-.018-.224.13.112.203.158c.074.046.755-.028.838-.037l-.013-.036c.067-.06.144-.124.196-.163.096-.072.185-.248.257-.334.072-.087.1-.354.072-.58-.027-.22.065-1.177.045-1.284zM31.533 8.757c.078.09.862.973.862.973s.234.086.263.08c.028-.007.1-.012.17.02.07.034.09.08.09.08s.112.047.228.122c.116.076.358.323.445.436.088.112.354.432.354.432s.19.044.322.148c.132.102.352.253.48.32.124.066.405.22.434.265.03.046-.033.24-.086.294-.054.053-.285.2-.285.2l.085.057-.133-.012c-.013-.002.157.124.19.16.034.033.065.098.065.098l-.064-.033.1.1c.06.065.033.048.033.048s-.078-.04-.093-.042c-.015-.003.055.024.114.092.06.068.062.117.062.117s-.042-.01-.08-.02c-.035-.013.025.036.08.096.056.063.11.084.11.084l-.13-.01s.07.045.118.094c.048.048.083.11.106.12-.017-.007-.104-.033-.104-.033l.116.112c.052.05.114.167.114.167l-.122.07s.033.15.083.18c.023.013.035.072.042.133.02-.024.04-.037.05-.02.04.05.145-.033.18.008.033.042.118.094.138.1.02.007-.008.003-.08-.013-.07-.015-.135-.087-.135-.087s.02.05.098.152c.04.052.062.074.073.083l.012.005s0 .002-.012-.005l-.087-.04s.082.057.157.146c.076.09.07.127.07.127l-.067-.032s.074.068.115.14c.04.073.107.137.107.137l-.154-.086s.04.027.165.21c.06.087.107.133.14.156l.055.024s-.02 0-.054-.024c-.03-.014-.064-.027-.078-.032-.028-.008.082.08.17.246.084.165.13.15.157.158.025.008-.098-.02-.098-.02s.096.127.247.248c.278.22.195.152.368.43.088.14.096.16.096.16h-.04s.107.105.173.222c.065.117.138.162.138.162l-.08-.027s.048.048.094.168c.047.122.165.238.165.238l-.09-.043s.108.138.163.265c.056.127-.06.412-.06.412s.17.28.23.618c.055.336.07.46.07.46l-.055-.073s.045.18.004.533c-.042.358.05.877.046.933-.006.053-.008.128-.01.162-.005.034-.027-.036-.027-.036s.008.087 0 .276c-.01.188-.013.177-.013.177l-.043-.104s.018.088.028.266c.01.18-.02.164-.02.164l-.048-.075s.073.286.025.454c-.048.17-.032.345-.04.378-.007.033-.06-.086-.06-.086s.02.167.02.386c.002.132-.036.292-.065.403l.16.08c.147.128.27.144.314.198.043.057.435 2.23.487 2.43.058.2.46.518.46.518h.044V11.95h2.233V8.665h-9.93c.04.022.084.05.12.092z"/></svg>